<!DOCTYPE svg PUBLIC "-//W3C//DTD SVG 1.1//EN" "http://www.w3.org/Graphics/SVG/1.1/DTD/svg11.dtd">
<svg version="1.1" xmlns="http://www.w3.org/2000/svg" xmlns:xlink="http://www.w3.org/1999/xlink" x="0" y="0" width="566.85" height="261.47" viewBox="0, 0, 566.85, 261.47">
  <defs>
    <clipPath id="Clip_1">
      <path d="M0,0 L566.85,0 L566.85,261.47 L0,261.47 z"/>
    </clipPath>
    <radialGradient id="Gradient_1" gradientUnits="userSpaceOnUse" cx="424.361" cy="198.298" r="42.776">
      <stop offset="0" stop-color="#94633E"/>
      <stop offset="0.709" stop-color="#94633E"/>
      <stop offset="1" stop-color="#493328"/>
    </radialGradient>
    <clipPath id="Clip_2">
      <path d="M0,0 L566.85,0 L566.85,261.47 L0,261.47 z"/>
    </clipPath>
    <radialGradient id="Gradient_2" gradientUnits="userSpaceOnUse" cx="132.153" cy="115.692" r="37.314">
      <stop offset="0" stop-color="#94633E"/>
      <stop offset="0.709" stop-color="#94633E"/>
      <stop offset="1" stop-color="#493328"/>
    </radialGradient>
    <clipPath id="Clip_3">
      <path d="M72.725,64.636 C60.48,71.716 45.015,87.836 45.015,87.836 L45.015,87.836 L46.03,93.926 C46.03,93.926 39.23,125.106 66.4,143.796 L66.4,143.796 C93.595,162.486 114.71,165.461 123.85,164.421 L123.85,164.421 C132.98,163.361 146.425,162.301 146.425,162.301 L146.425,162.301 L163.79,162.076 C163.79,162.076 164.09,152.715 162.79,140.076 L162.79,140.076 C162,132.301 154.255,90.751 127.775,76.766 L127.775,76.766 C109.245,66.981 95.705,61.491 85.045,61.486 L85.045,61.486 C80.46,61.486 76.41,62.506 72.725,64.636 z"/>
    </clipPath>
    <clipPath id="Clip_4">
      <path d="M0,0 L566.85,0 L566.85,261.47 L0,261.47 z"/>
    </clipPath>
  </defs>
  <g id="Layer_1">
    <g clip-path="url(#Clip_1)">
      <path d="M469.566,184.263 C469.566,184.263 477.176,195.763 499.901,197.193 C519.621,198.448 533.576,186.678 533.576,186.678 C533.576,186.678 529.071,200.493 508.791,204.633 C498.051,206.843 478.896,202.568 478.896,202.568 C478.896,202.568 487.081,218.598 518.856,214.373 C545.727,210.793 554.656,192.793 554.656,192.793 C554.656,192.793 551.631,206.538 531.852,217.018 C504.131,231.728 472.431,211.198 472.431,211.198 C472.431,211.198 498.001,233.568 528.521,228.303 C553.496,223.978 566.852,201.618 566.852,201.618 C566.852,201.618 559.971,225.043 535.256,231.733 C494.406,242.778 457.606,214.313 457.606,214.313" fill="#242421"/>
      <path d="M296.544,201.573 C296.544,201.573 320.699,152.478 353.139,148.353 C385.589,144.183 412.049,142.013 431.884,159.823 C451.689,177.608 481.889,219.848 481.889,219.848 L481.654,232.988 C481.654,232.988 436.624,272.943 393.614,253.923 C346.774,233.203 298.714,208.393 298.714,208.393 z" fill="#FEFEFE"/>
    </g>
    <path d="M380.815,188.381 C375.965,210.356 391.535,232.651 415.625,238.136 L415.625,238.136 C439.68,243.586 463.085,230.201 467.91,208.221 L467.91,208.221 C472.755,186.221 457.175,163.931 433.1,158.486 L433.1,158.486 C429.445,157.646 425.805,157.246 422.245,157.246 L422.245,157.246 C402.365,157.246 384.905,169.715 380.815,188.381 z" fill="url(#Gradient_1)"/>
    <g clip-path="url(#Clip_2)">
      <path d="M437.198,231.949 L424.728,202.049 L427.228,233.569 L423.128,202.139 L417.043,232.834 L421.573,201.829 L407.213,229.789 L420.088,201.189 L398.408,224.654 L418.788,200.239 L391.183,217.719 L417.813,199.009 L385.978,209.454 L417.188,197.644 L383.098,200.349 L416.923,196.194 L382.793,190.979 L417.083,194.739 L384.993,181.969 L417.623,193.384 L389.598,173.879 L418.503,192.199 L396.338,167.139 L419.718,191.259 L404.798,162.229 L421.158,190.669 L414.393,159.504 L422.723,190.409 L424.553,159.074 L424.328,190.554 L434.648,160.969 L425.868,191.029 L444.018,165.109 L427.238,191.844 L452.118,171.199 L428.403,192.894 L458.388,178.844 L429.198,194.214 L462.463,187.599 L429.648,195.639 L464.043,196.894 L429.718,197.124 L463.108,206.174 L429.378,198.569 L459.653,214.794 L428.653,199.799 L453.908,222.304 L427.573,200.854 L446.258,228.114 L426.273,201.639 z" fill="#242421"/>
      <path d="M399.806,192.696 C402.496,180.281 415.756,172.701 429.316,175.836 C442.911,178.921 451.681,191.486 448.931,203.871 C446.201,216.266 433.021,223.826 419.451,220.756 C405.876,217.671 397.081,205.091 399.806,192.696" fill="#2B2B2A"/>
      <path d="M391.719,202.179 C393.134,195.714 400.009,191.769 407.099,193.394 C414.12,194.974 418.684,201.539 417.275,207.989 C415.849,214.439 408.99,218.359 401.914,216.769 C394.854,215.139 390.275,208.649 391.719,202.179" fill="#FEFEFE"/>
      <path d="M296.544,201.573 C296.544,201.573 333.249,150.408 396.694,163.958 C460.149,177.538 480.714,230.898 480.714,230.898 L490.964,221.528 C490.964,221.528 498.029,224.068 511.924,222.078 C533.214,219.023 539.134,209.563 539.134,209.563 C539.134,209.563 516.724,214.483 504.229,211.928 C491.704,209.363 482.584,201.913 482.584,201.913 C482.584,201.913 461.164,148.338 397.929,141.978 C318.594,134.003 296.544,201.573 296.544,201.573" fill="#242421"/>
      <path d="M296.602,207.784 C327.362,203.054 338.507,227.269 390.657,243.869 C442.177,260.269 479.797,232.239 479.797,232.239 C479.797,232.239 484.862,237.504 489.252,244.849 C494.197,253.194 493.822,261.469 493.822,261.469 C493.822,261.469 486.542,251.444 481.007,248.514 C475.407,245.579 468.497,245.934 468.497,245.934 C468.497,245.934 430.402,269.774 389.472,253.924 C345.852,237.029 315.532,215.269 296.602,207.784" fill="#242421"/>
      <path d="M79.678,72.379 C79.678,72.379 62.558,73.584 52.764,63.684 C42.958,53.778 34.894,29.139 34.894,29.139 C34.894,29.139 34.203,44.004 40.714,59.499 C44.894,69.409 58.898,79.578 58.898,79.578 C58.898,79.578 42.968,77.729 30.913,62.328 C20.803,49.418 23.503,10.878 23.503,10.878 C23.503,10.878 16.973,35.014 17.588,47.159 C19.059,76.159 52.648,85.523 52.648,85.523 C52.648,85.523 26.068,79.559 12.973,59.519 C4.668,46.813 0.053,26.599 0.053,26.599 C0.053,26.599 -2.157,62.199 21.658,80.424 C36.448,91.724 75.203,98.644 75.203,98.644" fill="#242421"/>
      <path d="M163.79,162.076 C163.79,162.076 164.865,151.971 162.795,140.076 C161.455,132.371 154.255,90.746 127.775,76.766 C101.27,62.776 84.97,57.556 72.725,64.636 C60.48,71.716 45.015,87.831 45.015,87.831 L46.03,93.926 C46.03,93.926 39.23,125.106 66.405,143.796 C93.595,162.486 113.03,160.441 122.225,160.886 C133.24,161.411 146.425,162.301 146.425,162.301 z" fill="#FEFEFE"/>
    </g>
    <path d="M93.915,111.151 C91.875,130.246 107.325,147.741 128.44,150.256 L128.44,150.256 C142.07,151.876 154.71,146.856 162.52,137.971 L162.52,137.971 C160.98,127.676 153.91,96.391 134.22,80.961 L134.22,80.961 C133.07,80.871 131.925,80.826 130.795,80.826 L130.795,80.826 C111.825,80.826 95.81,93.591 93.915,111.151 z" fill="url(#Gradient_2)"/>
    <g clip-path="url(#Clip_3)">
      <path d="M146.329,143.087 L132.839,118.852 L137.949,145.352 L131.484,119.047 L129.169,145.611 L130.099,118.937 L120.469,143.936 L128.749,118.521 L112.454,140.361 L127.579,117.831 L105.594,135.122 L126.629,116.901 L100.364,128.566 L125.969,115.797 L97.034,121.096 L125.594,114.576 L95.869,113.187 L125.589,113.316 L96.904,105.352 L125.899,112.121 L100.069,98.066 L126.564,111.047 L105.204,91.766 L127.504,110.161 L111.969,86.861 L128.679,109.532 L119.924,83.681 L130.009,109.151 L128.589,82.411 L131.379,109.121 L137.404,83.102 L132.764,109.382 L145.819,85.797 L134.029,109.941 L153.309,90.236 L135.079,110.766 L159.434,96.172 L135.894,111.771 L163.749,103.227 L136.434,112.971 L165.994,110.971 L136.634,114.221 L166.074,118.922 L136.434,115.451 L163.934,126.566 L135.969,116.587 L159.749,133.406 L135.149,117.587 L153.744,139.027 L134.109,118.337 z" fill="#242421"/>
      <path d="M110.607,113.131 C111.757,102.37 122.337,94.766 134.232,96.18 C146.142,97.605 154.857,107.465 153.712,118.22 C152.572,129.005 141.982,136.596 130.072,135.171 C118.162,133.745 109.452,123.906 110.607,113.131" fill="#2B2B2A"/>
      <path d="M104.581,121.875 C105.186,116.3 110.686,112.35 116.901,113.06 C123.066,113.81 127.611,118.955 127.021,124.54 C126.416,130.145 120.921,134.07 114.681,133.35 C108.506,132.626 103.961,127.495 104.581,121.875" fill="#FEFEFE"/>
    </g>
    <g clip-path="url(#Clip_4)">
      <path d="M164.073,142.09 C164.073,142.09 149.748,97.841 99.388,79.446 C72.503,69.661 46.603,89.416 46.603,89.416 C46.603,89.416 35.383,86.726 26.913,76.596 C18.438,66.451 18.568,48.676 18.568,48.676 C18.568,48.676 26.668,66.656 32.538,70.921 C38.433,75.156 47.268,74.526 47.268,74.526 C47.268,74.526 62.708,54.486 92.073,58.301 C125.733,62.666 141.943,78.826 151.043,99.746 C159.758,119.821 164.073,142.09 164.073,142.09" fill="#242421"/>
      <path d="M162.95,163.36 C153.585,156.5 119.11,158.76 87.07,148.215 C47.78,135.28 48.235,92.835 48.235,92.835 C48.235,92.835 42.355,88.585 37.145,89.03 C31.93,89.49 22.665,95.37 22.665,95.37 C22.665,95.37 31.025,94.45 34.54,95.36 C37.99,96.295 41.35,100.22 41.35,100.22 C41.35,100.22 40.83,149.09 81.565,157.185 C133.85,167.575 142.02,162.3 162.95,163.36" fill="#242421"/>
      <path d="M306.148,88.277 C306.148,88.277 383.983,72.827 429.828,84.452 C508.738,104.472 532.773,176.352 532.773,176.352 C532.773,176.352 498.089,115.432 418.983,101.142 C392.013,96.267 327.089,108.052 312.268,103.137 C297.419,98.222 306.148,88.277 306.148,88.277" fill="#BC9670"/>
      <path d="M144.727,58.008 C144.727,58.008 127.257,17.213 103.567,6.013 C79.887,-5.177 57.667,2.678 57.667,2.678 C57.667,2.678 82.747,11.128 98.172,20.973 C118.252,33.788 125.132,61.918 134.082,63.688 C143.022,65.449 144.727,58.008 144.727,58.008" fill="#BC9670"/>
    </g>
  </g>
</svg>
